<?xml version="1.0" standalone="no"?>
<!DOCTYPE svg PUBLIC "-//W3C//DTD SVG 20010904//EN"
 "http://www.w3.org/TR/2001/REC-SVG-20010904/DTD/svg10.dtd">
<svg version="1.0" xmlns="http://www.w3.org/2000/svg"
 width="382.000000pt" height="83.000000pt" viewBox="0 0 382.000000 83.000000"
 preserveAspectRatio="xMidYMid meet">

<g transform="translate(0.000000,83.000000) scale(0.100000,-0.100000)"
fill="#000000" stroke="none">
<path d="M33 820 c-14 -6 -24 -21 -28 -42 -3 -18 -5 -192 -3 -386 3 -337 4
-354 22 -368 27 -19 42 -18 66 6 19 19 20 33 20 321 l0 300 29 -21 c113 -79
267 -67 358 30 l34 35 49 -47 c87 -84 205 -99 312 -41 28 15 61 42 75 60 l25
32 31 -36 c97 -111 297 -111 394 0 l31 36 25 -32 c14 -18 47 -45 75 -60 107
-58 225 -43 312 41 l49 47 34 -36 c101 -107 276 -109 380 -5 20 20 38 36 40
36 2 0 24 -20 50 -45 56 -53 134 -80 208 -72 60 7 139 47 172 87 14 16 29 30
32 30 3 0 17 -13 31 -29 41 -49 118 -81 193 -81 79 0 139 25 194 78 l37 36 38
-38 c54 -57 113 -80 197 -80 70 0 106 12 173 60 l22 16 0 -305 c0 -264 2 -308
16 -321 20 -21 37 -20 63 2 21 17 21 20 19 397 l-3 380 -29 13 c-40 20 -72 3
-92 -48 -9 -22 -31 -53 -50 -69 -95 -84 -233 -53 -289 64 -24 51 -28 55 -60
55 -31 0 -37 -5 -56 -42 -43 -86 -91 -119 -174 -119 -83 0 -131 33 -174 119
-19 37 -25 42 -56 42 -32 0 -36 -4 -60 -55 -41 -85 -128 -128 -213 -106 -54
15 -99 54 -125 110 -20 41 -26 46 -58 49 -35 3 -37 1 -63 -52 -41 -84 -121
-124 -208 -104 -59 13 -102 49 -129 108 -21 47 -25 50 -59 50 -34 0 -38 -3
-59 -50 -56 -124 -207 -154 -302 -59 -20 20 -40 51 -44 68 -15 70 -79 64 -114
-10 -53 -116 -203 -147 -295 -61 -15 15 -36 46 -46 69 -31 69 -86 67 -116 -5
-20 -49 -60 -89 -102 -103 -43 -14 -115 -13 -144 2 -40 20 -87 71 -99 106 -14
44 -51 60 -85 38 -13 -8 -24 -21 -24 -28 0 -26 -52 -88 -90 -107 -43 -22 -113
-26 -157 -9 -40 15 -91 67 -104 106 -7 21 -21 38 -36 44 -28 11 -31 11 -60 -1z"/>
<path d="M710 483 c1 -15 38 -53 52 -53 16 1 53 49 44 58 -4 3 -16 0 -28 -7
-14 -9 -23 -10 -31 -2 -13 13 -37 15 -37 4z"/>
<path d="M2827 464 c-15 -15 -7 -45 11 -42 9 2 17 12 17 22 0 20 -16 31 -28
20z"/>
<path d="M3384 456 c-7 -19 3 -36 22 -36 10 0 14 8 12 22 -4 26 -26 36 -34 14z"/>
<path d="M317 384 c-12 -12 -7 -188 6 -213 41 -80 163 -86 203 -9 9 18 14 61
14 128 0 91 -2 101 -17 98 -15 -3 -19 -18 -23 -106 -6 -115 -15 -132 -75 -132
-57 0 -74 31 -77 139 -3 87 -12 114 -31 95z"/>
<path d="M654 379 c-12 -19 10 -28 78 -31 l67 -3 -80 -104 c-44 -58 -78 -112
-77 -120 3 -13 21 -16 113 -16 97 0 110 2 113 18 3 15 -6 17 -77 17 -51 0 -81
4 -81 11 0 6 34 54 75 108 41 53 75 105 75 114 0 15 -13 17 -99 17 -61 0 -102
-4 -107 -11z"/>
<path d="M967 383 c-4 -3 -7 -48 -7 -98 0 -79 3 -97 23 -126 30 -45 83 -63
134 -46 59 20 75 51 80 159 4 96 -4 125 -31 115 -13 -5 -16 -24 -16 -102 0
-82 -3 -98 -20 -115 -30 -30 -83 -27 -109 6 -18 23 -21 41 -21 120 0 72 -3 94
-13 94 -8 0 -17 -3 -20 -7z"/>
<path d="M1370 372 c-74 -37 -102 -131 -60 -199 55 -90 197 -86 245 7 24 47
19 113 -11 150 -51 60 -110 74 -174 42z m103 -33 c96 -49 64 -189 -43 -189
-33 0 -48 6 -71 29 -42 42 -40 92 5 137 36 36 70 43 109 23z"/>
<path d="M1672 248 l3 -143 73 -3 c80 -3 112 9 91 34 -7 9 -33 14 -70 14 l-59
0 0 104 c0 113 -4 136 -26 136 -12 0 -14 -25 -12 -142z"/>
<path d="M1996 260 c-32 -72 -55 -138 -52 -145 9 -23 34 -6 46 31 12 34 12 34
75 34 60 0 63 -1 75 -30 17 -41 38 -57 46 -36 8 21 -100 270 -119 274 -9 2
-33 -40 -71 -128z m95 0 l18 -40 -45 0 c-41 0 -44 2 -34 19 5 11 15 32 20 47
12 31 17 28 41 -26z"/>
<path d="M2290 251 c0 -77 4 -142 8 -145 4 -2 14 -1 20 3 9 6 12 44 10 142 -3
118 -5 134 -20 137 -16 3 -18 -9 -18 -137z"/>
<path d="M2427 383 c-4 -3 -7 -64 -7 -133 0 -150 3 -156 80 -147 68 8 106 33
131 85 36 73 5 158 -67 188 -34 14 -125 19 -137 7z m143 -58 c60 -54 40 -149
-38 -174 -68 -21 -72 -16 -72 100 l0 102 45 -6 c25 -2 54 -12 65 -22z"/>
<path d="M2747 384 c-4 -4 -7 -67 -7 -140 0 -152 -5 -144 100 -144 76 0 100 6
100 25 0 19 -24 25 -96 25 l-64 0 0 40 0 39 57 3 c46 2 59 7 61 21 3 15 -5 17
-57 17 l-61 0 0 40 0 39 78 3 c60 2 77 6 77 18 0 12 -18 16 -90 18 -50 1 -94
0 -98 -4z"/>
<path d="M3037 384 c-4 -4 -7 -67 -7 -140 0 -152 -6 -144 101 -144 55 0 71 3
76 16 9 24 -15 34 -79 34 l-57 0 -3 117 c-3 108 -11 137 -31 117z"/>
<path d="M3306 374 c-3 -9 -6 -69 -6 -134 0 -89 3 -120 14 -129 9 -8 45 -11
98 -9 75 3 83 5 83 23 0 18 -8 20 -72 23 l-73 3 0 39 0 39 52 3 c41 2 54 7 56
21 3 14 -5 17 -52 17 l-56 0 0 40 0 40 75 0 c68 0 75 2 75 20 0 19 -7 20 -94
20 -76 0 -95 -3 -100 -16z"/>
</g>
</svg>
